<?xml version="1.0" encoding="UTF-8"?>
<svg version="1.1" xmlns="http://www.w3.org/2000/svg" width="4517" height="5061">
<path d="M0 0 C1731.37410425 0 1731.37410425 0 2898 246 C2899.13399231 246.54587769 2899.13399231 246.54587769 2900.29089355 247.1027832 C2923.37435683 258.22049336 2946.41595302 269.40573796 2969.04296875 281.43164062 C2971.86301134 282.92734353 2974.68627691 284.41675667 2977.51045227 285.90463257 C2993.20687301 294.17665244 3008.79006349 302.59505389 3024.19287109 311.40527344 C3027.12568779 313.07140308 3030.07041203 314.71447344 3033.01953125 316.3515625 C3047.46850296 324.3728248 3061.7309501 332.66879957 3075.91113281 341.15283203 C3078.70610214 342.82424666 3081.50461417 344.48949974 3084.3046875 346.15234375 C3097.32770834 353.90291774 3110.17308556 361.93007236 3123 370 C3124.68094982 371.05475088 3126.36193714 372.10944199 3128.04296875 373.1640625 C3164.17437322 395.86803047 3199.54734246 419.78073673 3234.18798828 444.69873047 C3236.1628542 446.11695134 3238.14200964 447.52907853 3240.12109375 448.94140625 C3250.21153 456.16299298 3260.11500113 463.60654726 3269.96484375 471.15234375 C3274.34838736 474.50933513 3278.76105002 477.82491848 3283.1875 481.125 C3296.80824879 491.30689815 3310.13044965 501.84646948 3323.29443359 512.61035156 C3325.62118176 514.50612176 3327.96530307 516.37963521 3330.3125 518.25 C3338.36591889 524.67931275 3346.30696247 531.2332715 3354.15673828 537.90893555 C3357.63184662 540.85921686 3361.14426224 543.75642669 3364.6875 546.625 C3369.08657833 550.20283215 3373.29550378 553.9455852 3377.484375 557.765625 C3380.01330295 560.01181566 3382.61049914 562.13531218 3385.25 564.25 C3391.01234335 568.9089159 3396.38492006 573.93327716 3401.78515625 579 C3404.7830904 581.81018474 3407.85150417 584.52491637 3410.9609375 587.2109375 C3415.19134972 590.92267849 3419.30874217 594.76176353 3423.44873047 598.57373047 C3425.89807994 600.82571341 3428.35636141 603.06792651 3430.8125 605.3125 C3450.9809569 623.79997367 3450.9809569 623.79997367 3460.33984375 633.40234375 C3462.38663996 635.40105077 3464.44414518 637.26058467 3466.61328125 639.11767578 C3471.21564311 643.13155058 3475.53654693 647.39237088 3479.84765625 651.71484375 C3480.66318466 652.52941544 3481.47871307 653.34398712 3482.31895447 654.1832428 C3484.03198008 655.89559193 3485.74375965 657.60918842 3487.4543457 659.32397461 C3490.05503552 661.93002015 3492.66101956 664.53068522 3495.26757812 667.13085938 C3496.94042486 668.80436699 3498.61296134 670.47818482 3500.28515625 672.15234375 C3501.05513443 672.9202977 3501.82511261 673.68825165 3502.61842346 674.47947693 C3506.71876368 678.59741553 3510.65970342 682.79292618 3514.43333435 687.21315002 C3517.13482583 690.29431798 3520.07137156 693.13674273 3523 696 C3527.2614917 700.16636912 3531.3014436 704.43061816 3535.19628906 708.94238281 C3538.32477676 712.51126401 3541.60722558 715.93409846 3544.875 719.375 C3549.98203619 724.77690917 3555.05302867 730.19725896 3559.99609375 735.75 C3561.3953531 737.32109821 3562.80508452 738.88290465 3564.22265625 740.4375 C3568.0671658 744.65788784 3571.79120306 748.93032658 3575.375 753.375 C3578.61952732 757.3882655 3581.98749324 761.22413126 3585.5 765 C3589.73073067 769.55246756 3593.72275162 774.24613528 3597.62109375 779.0859375 C3600.35905627 782.43982919 3603.17234557 785.72176575 3606 789 C3611.09892655 794.92215749 3616.07998235 800.92797822 3621 807 C3622.01915052 808.24900868 3623.03870902 809.49768452 3624.05859375 810.74609375 C3624.59887207 811.40915527 3625.13915039 812.0722168 3625.69580078 812.75537109 C3626.81967011 814.13218455 3627.94698223 815.50619454 3629.07763672 816.87744141 C3631.70461255 820.08212447 3634.24350766 823.28711163 3636.57421875 826.71484375 C3643.49641306 836.69930318 3651.95556007 841.76415803 3662.48828125 847.57958984 C3666.3005245 849.7354638 3669.9641633 852.09843608 3673.625 854.5 C3674.3159375 854.95117188 3675.006875 855.40234375 3675.71875 855.8671875 C3677.81551935 857.24025847 3679.90810137 858.6195222 3682 860 C3682.69738281 860.45810059 3683.39476563 860.91620117 3684.11328125 861.38818359 C3721.2440326 885.79978589 3756.79129426 912.42115824 3791.19580078 940.52783203 C3792.78273046 941.82271511 3794.37348737 943.11290478 3795.96484375 944.40234375 C3802.81148137 949.962095 3809.50818531 955.6856812 3816.18847656 961.44287109 C3817.99362396 962.99451936 3819.80438559 964.53933585 3821.6171875 966.08203125 C3828.03175585 971.54554923 3834.35221788 977.08157628 3840.5625 982.77734375 C3842.64272725 984.67421764 3844.74556898 986.53392943 3846.875 988.375 C3852.11829125 992.93484799 3857.18733493 997.68574888 3862.28125 1002.41064453 C3863.97407572 1003.9760274 3865.67332117 1005.53409377 3867.375 1007.08984375 C3873.22429261 1012.44497494 3878.95794453 1017.86158387 3884.48828125 1023.55078125 C3886.49370247 1025.50630086 3888.52189688 1027.32806607 3890.64501953 1029.14941406 C3895.00307455 1032.95108092 3899.10917774 1036.96459963 3903.19140625 1041.05859375 C3903.94034653 1041.8065773 3904.6892868 1042.55456085 3905.46092224 1043.32521057 C3907.03271225 1044.89632464 3908.60325849 1046.46868392 3910.17260742 1048.04223633 C3912.55601304 1050.43099846 3914.94471068 1052.81437446 3917.33398438 1055.19726562 C3918.87011237 1056.7340545 3920.40593009 1058.2711536 3921.94140625 1059.80859375 C3922.64576309 1060.51092636 3923.35011993 1061.21325897 3924.07582092 1061.93687439 C3928.0220752 1065.9015742 3931.79439887 1069.96077689 3935.43162537 1074.21144104 C3937.97938652 1077.11688273 3940.73547015 1079.80273365 3943.5 1082.5 C3947.59823991 1086.49852604 3951.45715821 1090.61449233 3955.20117188 1094.94726562 C3958.2111066 1098.38205541 3961.35963637 1101.684812 3964.5 1105 C3968.89866996 1109.64354437 3973.20839167 1114.33890896 3977.40136719 1119.16943359 C3979.51598364 1121.59084383 3981.69364771 1123.95120451 3983.875 1126.3125 C3987.99906676 1130.82903837 3991.87936865 1135.49133016 3995.71875 1140.25 C3998.06718968 1143.08099578 4000.50909902 1145.79383598 4003 1148.5 C4007.05983645 1152.91640144 4010.89323821 1157.46163522 4014.66015625 1162.12890625 C4017.18733323 1165.22986632 4019.7761512 1168.27175093 4022.375 1171.3125 C4026.67895708 1176.36121375 4030.80282675 1181.52788727 4034.87231445 1186.76660156 C4038.00723962 1190.78456501 4041.24580244 1194.6937004 4044.5625 1198.5625 C4048.97936878 1203.72599113 4053.17503946 1209.02965932 4057.28515625 1214.44140625 C4059.25082541 1217.02881635 4061.24136771 1219.59507424 4063.24609375 1222.15234375 C4069.85844588 1230.58818129 4076.34376688 1239.09849088 4082.67431641 1247.74804688 C4086.31609955 1252.72288307 4089.99615979 1257.66585141 4093.70996094 1262.5871582 C4100.49647073 1271.5807545 4107.09745673 1280.67912382 4113.54394531 1289.91894531 C4115.02969476 1292.042441 4116.52490885 1294.15894332 4118.0234375 1296.2734375 C4118.53237549 1296.99184814 4119.04131348 1297.71025879 4119.56567383 1298.45043945 C4120.50246611 1299.77227766 4121.43972751 1301.09378367 4122.37768555 1302.41479492 C4132.05203843 1316.09305497 4141.39868699 1329.99582632 4150.6875 1343.9375 C4151.25415375 1344.78761658 4151.8208075 1345.63773315 4152.40463257 1346.51361084 C4166.33724229 1367.42782683 4179.87710544 1388.56727584 4193 1410 C4193.65081543 1411.06057617 4194.30163086 1412.12115234 4194.97216797 1413.21386719 C4205.25590148 1429.98841027 4215.2639532 1446.89989205 4225 1464 C4225.54575684 1464.95648437 4226.09151367 1465.91296875 4226.65380859 1466.8984375 C4239.62936135 1489.65786439 4252.35142457 1512.55076597 4264.35571289 1535.83862305 C4265.60819862 1538.24670586 4266.87056223 1540.6482699 4268.14233398 1543.04614258 C4275.0528875 1556.0837942 4281.71896522 1569.23699684 4288.3125 1582.4375 C4288.86447052 1583.54204529 4289.41644104 1584.64659058 4289.98513794 1585.78460693 C4297.9695365 1601.77709191 4305.80499052 1617.80160965 4313.14300537 1634.10241699 C4314.09017156 1636.19966056 4315.04377568 1638.2938978 4315.99853516 1640.38769531 C4346.65188208 1707.61229651 4373.85708336 1776.17457487 4398 1846 C4398.30788452 1846.88993652 4398.61576904 1847.77987305 4398.9329834 1848.69677734 C4415.11138671 1895.54386318 4429.32752547 1943.08951348 4442 1991 C4442.3053064 1992.15334839 4442.61061279 1993.30669678 4442.9251709 1994.49499512 C4467.13902673 2086.17162578 4485.75702369 2179.21373114 4514.84570312 2457.96875 C4514.99604314 2460.92226527 4515.15522818 2463.87518358 4515.31640625 2466.828125 C4519.09563212 2537.38995317 4519.11042392 2609.0787699 4515.18682861 2679.63446045 C4514.98368173 2683.29395813 4514.78841311 2686.95383713 4514.59326172 2690.61376953 C4509.96282549 2776.70707503 4501.27522648 2862.51159229 4410 3287 C4409.73376831 3287.88294739 4409.46753662 3288.76589478 4409.1932373 3289.67559814 C4389.45483432 3355.06301266 4367.71317815 3419.94923848 4344 3484 C4343.62997864 3485.0017627 4343.25995728 3486.00352539 4342.87872314 3487.03564453 C4312.11516262 3570.30166754 4278.30957262 3652.59189602 4217.66574097 3781.49757385 C4215.84117732 3785.25719539 4214.02771449 3789.02195943 4212.22183228 3792.79058838 C4193.59441703 3831.65899167 4174.10995348 3870.31645311 4152.6875 3907.72875977 C4148.68392129 3914.73187108 4144.85703171 3921.81927939 4141.0625 3928.9375 C4134.9125269 3940.44626138 4128.41234394 3951.71681177 4121.78417969 3962.95507812 C4119.34199101 3967.1229732 4116.94434034 3971.31582343 4114.54467773 3975.50830078 C4101.26544921 3998.68716187 4087.23123524 4021.39552215 4073 4044 C4072.48663086 4044.81694336 4071.97326172 4045.63388672 4071.44433594 4046.47558594 C4068.49625214 4051.16651321 4065.5359313 4055.84947378 4062.56640625 4060.52685547 C4060.94416083 4063.08816254 4059.33156588 4065.655403 4057.71875 4068.22265625 C4048.80238783 4082.34654555 4039.53221671 4096.21943774 4030.1875 4110.0625 C4029.56811554 4110.9800708 4028.94873108 4111.8976416 4028.31057739 4112.84301758 C4009.02696499 4141.39128065 4009.02696499 4141.39128065 3999.125 4155.375 C3998.63507568 4156.06795166 3998.14515137 4156.76090332 3997.64038086 4157.47485352 C3992.8946082 4164.17330998 3988.09117802 4170.82975247 3983.2734375 4177.4765625 C3981.12308618 4180.44366447 3978.98269684 4183.41750504 3976.8515625 4186.3984375 C3969.02193069 4197.33277705 3960.92262828 4208.04330234 3952.74316406 4218.71777344 C3950.51790553 4221.63117914 3948.31840637 4224.56254058 3946.125 4227.5 C3935.34102227 4241.91948538 3924.22871411 4256.08500974 3912.84106445 4270.03173828 C3909.29921986 4274.37694742 3905.81876561 4278.76430913 3902.375 4283.1875 C3897.92850427 4288.89026373 3893.30858865 4294.42321348 3888.61328125 4299.921875 C3886.22117731 4302.7270732 3883.88544149 4305.57463157 3881.5625 4308.4375 C3876.66883642 4314.44573465 3871.61973208 4320.31459133 3866.56152344 4326.18408203 C3864.9974147 4328.00300648 3863.43918924 4329.82680079 3861.8828125 4331.65234375 C3857.41768077 4336.88639972 3852.94336671 4342.09837044 3848.3125 4347.1875 C3845.21031992 4350.59821516 3842.26761726 4354.0973376 3839.375 4357.6875 C3836.31342275 4361.47194966 3833.15436499 4364.96488014 3829.66015625 4368.34765625 C3827.95615774 4370.04363594 3826.38285917 4371.80489696 3824.8125 4373.625 C3820.69710577 4378.39406982 3816.41051626 4382.9980121 3812.12890625 4387.6171875 C3810.08554644 4389.82221556 3808.05146698 4392.03511383 3806.02734375 4394.2578125 C3801.68239629 4399.02838747 3797.31917109 4403.74633691 3792.70581055 4408.26123047 C3791.0350685 4409.96425392 3789.49565174 4411.72755842 3787.953125 4413.546875 C3782.54773209 4419.76150966 3776.60003503 4425.44381271 3770.73828125 4431.22265625 C3766.19898825 4435.72264801 3761.81259371 4440.26139845 3757.65380859 4445.11474609 C3754.76707453 4448.40546952 3751.66630616 4451.4780322 3748.5625 4454.5625 C3747.63727539 4455.49352539 3747.63727539 4455.49352539 3746.69335938 4456.44335938 C3743.62382201 4459.50650852 3740.50970443 4462.45737259 3737.21484375 4465.27734375 C3731.865466 4469.89841161 3726.95933281 4474.96986774 3722 4480 C3716.39193068 4485.68813014 3710.80929503 4491.34956966 3704.70507812 4496.51367188 C3702.88315358 4498.10185581 3701.19364783 4499.77607467 3699.5 4501.5 C3697.17562913 4503.86358972 3694.79486214 4506.08885957 3692.28125 4508.25 C3688.08654563 4511.89673011 3684.03474835 4515.67802158 3680 4519.5 C3675.3459372 4523.90863371 3670.64082385 4528.23010841 3665.79931641 4532.43261719 C3663.56412587 4534.37968954 3661.37529997 4536.37494469 3659.1875 4538.375 C3655.72469918 4541.50422827 3652.19320997 4544.50500349 3648.5625 4547.4375 C3644.75912497 4550.51336588 3641.09917348 4553.68753166 3637.5 4557 C3633.11105254 4561.03510021 3628.59137234 4564.83830304 3623.953125 4568.58203125 C3620.56641218 4571.35501436 3617.25058257 4574.20239709 3613.9375 4577.0625 C3609.27359584 4581.08077719 3604.56293443 4585.0126056 3599.73046875 4588.828125 C3597.61495235 4590.51085335 3595.51620175 4592.20839763 3593.42578125 4593.921875 C3585.82002641 4600.15330152 3578.13211693 4606.24345405 3570.29785156 4612.18530273 C3565.53602874 4615.8036975 3560.8432449 4619.49629444 3556.1875 4623.25 C3549.89696121 4628.31291777 3543.50073548 4633.2091264 3537 4638 C3536.3198584 4638.50225098 3535.6397168 4639.00450195 3534.93896484 4639.52197266 C3530.95974167 4642.46019565 3526.97738247 4645.39410092 3522.9921875 4648.32421875 C3519.74164521 4650.71499324 3516.4969704 4653.11335729 3513.2578125 4655.51953125 C3502.82547355 4663.25993382 3492.26503949 4670.78985708 3481.59228516 4678.19482422 C3479.00593085 4679.99586996 3476.42969454 4681.81057692 3473.85546875 4683.62890625 C3449.42404253 4700.83570968 3424.32368457 4717.13966517 3399 4733 C3397.73953857 4733.79011475 3397.73953857 4733.79011475 3396.45361328 4734.59619141 C3359.39032294 4757.78447035 3321.55788408 4779.65775192 3283.05029297 4800.35351562 C3280.05913555 4801.96807987 3277.07767655 4803.59936304 3274.09765625 4805.234375 C3241.80697966 4822.85647526 3208.76834552 4839.44171769 3175.22460938 4854.54589844 C3172.33338576 4855.84966342 3169.44769946 4857.16496867 3166.56404114 4858.48536682 C3109.19240353 4884.74895097 3050.55891912 4908.1781731 2991 4929 C2989.66062378 4929.46826202 2989.66062378 4929.46826202 2988.29418945 4929.94598389 C2938.06024369 4947.47944771 2887.34201639 4963.04563497 2836 4977 C2834.97624268 4977.27865906 2833.95248535 4977.55731812 2832.89770508 4977.84442139 C2732.92816502 5005.01130126 2630.84008059 5024.25644988 2285.57247162 5058.5918808 C2283.35244752 5058.6832821 2281.1325467 5058.77724551 2278.91265869 5058.87188721 C2257.8971202 5059.75857472 2236.87438597 5060.20430707 2215.84333229 5060.53081417 C2215.14350606 5060.54173517 2214.44367983 5060.55265617 2213.72264675 5060.56390811 C2177.57178534 5061.12317321 2141.42267562 5061.14061374 2105.26827154 5061.12354933 C2095.28536468 5061.11906049 2085.30246055 5061.12069182 2075.31955316 5061.12234976 C2056.67945283 5061.12528132 2038.03935568 5061.12358481 2019.39925575 5061.11920547 C2000.56005759 5061.11479909 1981.72086106 5061.11263613 1962.88166237 5061.11310768 C1961.08468086 5061.11315072 1961.08468086 5061.11315072 1959.2513967 5061.11319463 C1953.14089822 5061.11335104 1947.03039974 5061.11354299 1940.91990126 5061.11374746 C1896.89747077 5061.1151483 1852.87504157 5061.11174744 1808.85261154 5061.10573006 C1798.01009099 5061.10425061 1787.16757044 5061.10278917 1776.32504988 5061.10139394 C1775.31378112 5061.10126379 1775.31378112 5061.10126379 1774.2820827 5061.10113101 C1742.9421346 5061.09711966 1711.60218655 5061.09570033 1680.26223823 5061.09492797 C1678.2078643 5061.09487721 1676.15349038 5061.09482524 1674.09911646 5061.09477296 C1661.70977882 5061.09445883 1649.32044117 5061.09417146 1636.93110352 5061.09391499 C1606.14330151 5061.09327648 1575.35549952 5061.09231723 1544.56769753 5061.09113979 C1543.867112 5061.09111316 1543.16652648 5061.09108653 1542.4447111 5061.09105909 C1497.14026654 5061.08933421 1451.83582219 5061.08629016 1406.53137779 5061.08213139 C1405.80912207 5061.0820651 1405.08686635 5061.08199881 1404.3427241 5061.08193051 C1382.36092684 5061.0799102 1360.3791296 5061.07779169 1338.39733235 5061.07565394 C1314.07256646 5061.07328877 1289.74780057 5061.07094037 1265.42303467 5061.06866455 C1264.69149123 5061.06859605 1263.95994779 5061.06852755 1263.20623636 5061.06845698 C1193.61010642 5061.06194575 1124.01397641 5061.05814243 1054.41784624 5061.05503077 C1051.46674589 5061.05489862 1048.51564555 5061.0547657 1045.56454521 5061.05463275 C1018.40607024 5061.05340926 991.24759526 5061.05221742 964.08912029 5061.05106533 C963.00578378 5061.05101937 963.00578378 5061.05101937 961.90056169 5061.05097248 C959.71385969 5061.05087972 957.52715769 5061.05078697 955.34045569 5061.05069422 C896.27950104 5061.04818896 837.21854641 5061.04540777 778.15759179 5061.04244758 C776.07415334 5061.04234323 773.99071488 5061.04223908 771.90727643 5061.04213501 C704.24789429 5061.03875421 636.58851221 5061.0348859 515.29257202 5061.02565002 C511.8447165 5061.02537919 508.39686098 5061.02510836 504.94900546 5061.02483763 C409.29933691 5061.01728985 313.64966847 5061.00848136 218 5061 C218 4900.29 218 4739.58 218 4574 C146.06 4574 74.12 4574 0 4574 C0 3064.58 0 1555.16 0 0 Z M1294 1205 C1294 1915.49 1294 2625.98 1294 3358 C1570.51595676 3363.0873759 1570.51595676 3363.0873759 1846.5 3354.1875 C1847.6253717 3354.10351959 1848.75074341 3354.01953918 1849.91021729 3353.93301392 C1948.75661576 3346.51614518 2047.03741941 3329.76476719 2260 3255 C2260.71712158 3254.6713092 2261.43424316 3254.34261841 2262.1730957 3254.00396729 C2287.94080463 3242.18173328 2313.15416921 3229.66154373 2337.5625 3215.19921875 C2341.40197073 3212.92616192 2345.26881496 3210.725473 2349.18530273 3208.58862305 C2359.46560307 3202.96915337 2369.18625387 3196.50232007 2378.94287109 3190.02783203 C2382.01594536 3187.98942324 2385.09545976 3185.96103012 2388.17578125 3183.93359375 C2406.31414959 3171.96028517 2423.82894901 3159.3177049 2441 3146 C2441.93585937 3145.27683594 2441.93585937 3145.27683594 2442.890625 3144.5390625 C2450.39050332 3138.73787457 2457.71577226 3132.77129007 2464.921875 3126.609375 C2467.71666189 3124.22527908 2470.57051045 3121.92194485 2473.4375 3119.625 C2478.45175024 3115.54908898 2483.18042287 3111.21147206 2487.87866211 3106.77978516 C2490.85295093 3103.97609145 2493.86046521 3101.22892734 2496.9453125 3098.546875 C2508.10457163 3088.8374777 2518.65432941 3078.44030482 2529.125 3068 C2530.00115967 3067.12843262 2530.87731934 3066.25686523 2531.7800293 3065.35888672 C2536.13572519 3060.99272544 2540.34126249 3056.56325722 2544.35986328 3051.88525391 C2547.10390342 3048.73111905 2549.99947962 3045.72126887 2552.875 3042.6875 C2557.79493773 3037.4605134 2562.45374682 3032.14137138 2566.93359375 3026.53125 C2569.00112782 3023.99861847 2571.16113341 3021.5926884 2573.375 3019.1875 C2577.89533573 3014.22061464 2582.00940493 3008.9950021 2586.12109375 3003.69140625 C2588.02387011 3001.23886691 2589.95201482 2998.81090354 2591.91015625 2996.40234375 C2599.08718199 2987.57209613 2605.83757458 2978.49429395 2612.42382812 2969.21582031 C2613.90407218 2967.13485764 2615.39555938 2965.06251499 2616.890625 2962.9921875 C2667.80970706 2892.14179722 2706.6264878 2812.93428662 2755 2668 C2755.21658264 2667.21768005 2755.43316528 2666.43536011 2755.65631104 2665.6293335 C2781.44063372 2572.30675052 2795.31087693 2476.20965537 2802.625 2321.1875 C2802.64564514 2320.18195068 2802.66629028 2319.17640137 2802.68756104 2318.14038086 C2804.67090187 2218.32111319 2797.93923573 2118.41425334 2781 2020 C2780.86398376 2019.20841492 2780.72796753 2018.41682983 2780.58782959 2017.60125732 C2765.78599346 1931.89236805 2741.03346658 1847.60959008 2687 1727 C2686.40714997 1725.78698404 2685.81437885 1724.57392952 2685.22167969 1723.36083984 C2677.01610066 1706.58957556 2668.45099123 1690.11176383 2659 1674 C2658.36320312 1672.90381348 2657.72640625 1671.80762695 2657.0703125 1670.67822266 C2640.90927375 1642.87988403 2623.35149811 1615.69303634 2604 1590 C2603.38253906 1589.17580566 2602.76507812 1588.35161133 2602.12890625 1587.50244141 C2593.78333448 1576.38111294 2585.25063806 1565.43650183 2576.40478516 1554.70898438 C2575.09873599 1553.12011677 2573.80471919 1551.52137947 2572.51171875 1549.921875 C2568.19356693 1544.58198432 2563.73984723 1539.41055881 2559.1171875 1534.33203125 C2557.21948831 1532.24176111 2555.35266585 1530.13013885 2553.5 1528 C2549.38532769 1523.28546658 2545.21280353 1518.62707316 2541 1514 C2540.55962402 1513.51305664 2540.11924805 1513.02611328 2539.66552734 1512.52441406 C2531.09686622 1503.0765338 2522.13278753 1494.0260905 2513.125 1485 C2512.53736877 1484.40978058 2511.94973755 1483.81956116 2511.34429932 1483.2114563 C2505.63124627 1477.47857802 2499.93831644 1471.78460421 2493.77539062 1466.53027344 C2490.64800564 1463.83466713 2487.68362009 1460.96454094 2484.6875 1458.125 C2479.5649753 1453.30741768 2474.35089469 1448.71232895 2468.8515625 1444.32421875 C2466.09549619 1442.07783593 2463.42516708 1439.75930905 2460.75854492 1437.40869141 C2453.53209696 1431.04492116 2446.07027274 1425.10661404 2438.37890625 1419.31640625 C2435.42027931 1417.08833716 2432.49402481 1414.82592576 2429.58984375 1412.52734375 C2420.39045039 1405.25112986 2410.99122344 1398.44080335 2401.26171875 1391.890625 C2397.90517985 1389.62903897 2394.62224663 1387.29201262 2391.375 1384.875 C2384.14880849 1379.56618752 2376.57414659 1374.79212528 2369 1370 C2368.20835449 1369.49839355 2367.41670898 1368.99678711 2366.60107422 1368.47998047 C2287.7110119 1318.66047352 2201.86707869 1281.22669931 1807.125 1206.8125 C1806.406539 1206.77557037 1805.688078 1206.73864075 1804.94784546 1206.70059204 C1634.84488651 1198.1667184 1464.31689183 1205 1294 1205 Z " fill="#05054D" transform="translate(0,0)"/>
<path d="M0 0 C1483.82988481 0 1483.82988481 0 1526.90234375 2.2734375 C1527.87405014 2.32454681 1528.84575653 2.37565613 1529.84690857 2.42831421 C1571.77120341 4.69675135 1613.73235688 7.49581709 1655.50402832 11.7479248 C1658.02920815 12.00294981 1660.55499961 12.25087623 1663.08105469 12.49707031 C1688.76467678 15.01163688 1714.34010756 18.28362812 1739.9123764 21.73061371 C1742.3391393 22.05766707 1744.76603339 22.38373427 1747.19293213 22.70977783 C1764.65529404 25.06018423 1782.06778205 27.5676027 1799.43292236 30.56576538 C1802.64483156 31.10907663 1805.86250431 31.60804613 1809.08236694 32.10163879 C1821.77053802 34.04687687 1834.38197381 36.39788327 1847 38.75 C1848.18498077 38.97031891 1849.36996155 39.19063782 1850.59085083 39.41763306 C1879.43567797 44.78425351 1908.17296737 50.41001812 1936.76220703 57.02148438 C1940.62048307 57.91358451 1944.48063739 58.79734098 1948.34109497 59.6799469 C1983.89310018 67.80958704 1983.89310018 67.80958704 2000 72 C2001.74796875 72.44859375 2001.74796875 72.44859375 2003.53125 72.90625 C2024.84994466 78.47599906 2045.96525436 84.8430223 2067.07958984 91.13330078 C2070.3658937 92.10858741 2073.65621791 93.069413 2076.94775391 94.02685547 C2098.04393231 100.1755156 2118.85636697 107.21490415 2139.67987061 114.22009277 C2141.90734161 114.96885305 2144.13546775 115.71563037 2146.36376953 116.46191406 C2227.23338481 143.57616662 2305.57556357 177.26504589 2381.875 215.3125 C2382.86795074 215.80634186 2383.86090149 216.30018372 2384.88394165 216.80899048 C2398.3193729 223.49905545 2411.56060058 230.48282787 2424.7010498 237.73452759 C2427.65463721 239.3603494 2430.62019633 240.96229898 2433.58984375 242.55859375 C2468.36547484 261.2738072 2502.40842209 281.28023518 2535.69384766 302.53417969 C2538.0741206 304.04711201 2540.46375042 305.54429771 2542.85546875 307.0390625 C2573.34226691 326.16159573 2602.9287468 346.79973064 2632 368 C2632.7719873 368.56187012 2633.54397461 369.12374023 2634.33935547 369.70263672 C2644.56346454 377.15268126 2654.6399887 384.76410633 2664.59765625 392.56640625 C2668.1873095 395.37614808 2671.80842571 398.14123251 2675.44238281 400.89331055 C2684.19702504 407.52784538 2692.70034735 414.42998048 2701.14160156 421.45751953 C2703.6639979 423.55112175 2706.20654581 425.61956116 2708.75 427.6875 C2718.45658807 435.62259915 2727.96162995 443.80062887 2737.46875 451.97265625 C2739.79367848 453.96975955 2742.12715881 455.9560592 2744.46875 457.93359375 C2751.37891823 463.78432608 2758.0996604 469.79162934 2764.67553711 476.01708984 C2767.71400314 478.89020581 2770.78447424 481.70630429 2773.94140625 484.44921875 C2778.0720003 488.0390678 2782.07704952 491.75035212 2786.0625 495.5 C2787.06506836 496.43779297 2787.06506836 496.43779297 2788.08789062 497.39453125 C2791.27864651 500.38993474 2794.42539524 503.41269419 2797.49609375 506.53125 C2799.79853502 508.85481755 2802.1639432 511.03608426 2804.65234375 513.15844727 C2809.32218968 517.22313311 2813.69571613 521.55170209 2818.06640625 525.93359375 C2818.90413071 526.77036148 2819.74185516 527.60712921 2820.60496521 528.46925354 C2822.36506935 530.22868104 2824.12392677 531.98935653 2825.8815918 533.7512207 C2828.55470972 536.42969411 2831.23312251 539.10278873 2833.91210938 541.77539062 C2835.63052903 543.49447115 2837.34863842 545.21386189 2839.06640625 546.93359375 C2839.85825821 547.72342148 2840.65011017 548.51324921 2841.46595764 549.32701111 C2845.64803215 553.5265585 2849.67289906 557.80244851 2853.526474 562.30628967 C2855.57114692 564.65649159 2857.76890346 566.82761653 2860 569 C2863.45931825 572.42306791 2866.72917746 575.90958603 2869.890625 579.60546875 C2872.85545758 582.97110277 2875.93081114 586.22965754 2879 589.5 C2883.76542991 594.58700058 2888.47586319 599.69583961 2893 605 C2893.87477272 606.0210281 2894.74979699 607.04184071 2895.625 608.0625 C2897.14208897 609.8320588 2898.65876383 611.60196297 2900.17407227 613.37304688 C2903.95137934 617.78603428 2907.75263469 622.17761413 2911.5625 626.5625 C2919.45769372 635.66013278 2927.31131064 644.78408426 2934.7890625 654.23046875 C2936.4983092 656.37155693 2938.22205098 658.49644747 2939.9609375 660.61328125 C2945.94969013 667.91097182 2951.78835223 675.28264055 2957.41357422 682.86450195 C2961.15986025 687.90701517 2964.99987169 692.86851879 2968.875 697.8125 C2976.11115088 707.06767065 2983.08604402 716.50265637 2990 726 C2990.56106445 726.76876465 2991.12212891 727.5375293 2991.70019531 728.32958984 C2993.3657435 730.61331451 2995.02745029 732.89977602 2996.6875 735.1875 C2997.16131104 735.83847656 2997.63512207 736.48945312 2998.12329102 737.16015625 C3007.93813279 750.7420608 3017.23239701 764.70886682 3026.61572266 778.58984375 C3027.87024619 780.44415892 3029.1264277 782.2973535 3030.38427734 784.14941406 C3037.71243055 794.9405723 3044.85456603 805.79390087 3051.56640625 816.98046875 C3054.12993809 821.24764857 3056.80973656 825.43696837 3059.5 829.625 C3068.34942369 843.5353989 3076.65752582 857.782092 3085 872 C3085.35507629 872.60511414 3085.71015259 873.21022827 3086.07598877 873.8336792 C3094.80092946 888.71588661 3103.22799595 903.73478218 3111.36083984 918.94824219 C3112.99286426 921.98671481 3114.64441426 925.01380119 3116.30078125 928.0390625 C3133.97130819 960.45418495 3150.43873499 993.57841777 3165.37353516 1027.34130859 C3166.95605444 1030.91270642 3168.57466738 1034.46703943 3170.19921875 1038.01953125 C3185.14452971 1070.78804999 3198.49936921 1104.22050741 3211.21020508 1137.9105835 C3212.3785336 1141.00141737 3213.55770383 1144.08811544 3214.734375 1147.17578125 C3221.41157435 1164.82164035 3227.35396121 1182.70116078 3233.22277832 1200.62799072 C3234.00442593 1203.01350753 3234.78851447 1205.39820963 3235.57324219 1207.78271484 C3242.03627403 1227.43211285 3248.30073232 1247.11299063 3254 1267 C3254.41378906 1268.43206787 3254.41378906 1268.43206787 3254.8359375 1269.89306641 C3269.32283724 1320.14018831 3281.40123572 1371.01041872 3291.46484375 1422.31982422 C3292.42411564 1427.19867423 3293.45119574 1432.04204061 3294.625 1436.875 C3296.04084084 1442.8008507 3296.96072837 1448.77289808 3297.87768555 1454.79150391 C3298.83227804 1461.03940781 3299.9552599 1467.23433355 3301.14526367 1473.44213867 C3317.70952397 1561.0136872 3325.78841696 1651.19071562 3329.69140625 1740.13720703 C3329.92601411 1745.45569659 3330.19193847 1750.77181126 3330.47225952 1756.08805847 C3335.4662512 1852.19071821 3332.99259269 1949.57191334 3320 2093 C3319.90805359 2093.85682373 3319.81610718 2094.71364746 3319.72137451 2095.59643555 C3317.5762717 2115.51476017 3315.12243596 2135.39014956 3312.49121094 2155.25 C3312.00429792 2158.96718885 3311.53531097 2162.68626223 3311.0703125 2166.40625 C3309.22870681 2180.95090221 3306.97603021 2195.36837728 3304.35864258 2209.7890625 C3302.9629363 2217.48946539 3301.62273085 2225.19403541 3300.38671875 2232.921875 C3300.25418701 2233.7498912 3300.12165527 2234.57790741 3299.98510742 2235.43101501 C3299.34711186 2239.42957581 3298.71618328 2243.42914873 3298.09228516 2247.42993164 C3296.90224438 2254.98244415 3295.53012432 2262.41251989 3293.73901367 2269.85131836 C3292.414952 2275.49268715 3291.35729737 2281.18789938 3290.25 2286.875 C3285.71327046 2309.83860409 3280.4166275 2332.62592292 3274.88037109 2355.36816406 C3274.0409805 2358.83094122 3273.20941975 2362.29549267 3272.38018799 2365.76071167 C3271.59724622 2369.02942964 3270.81045448 2372.29721505 3270.02313232 2375.56488037 C3269.64073833 2377.15491405 3269.25969599 2378.74527356 3268.88018799 2380.33599854 C3266.40806133 2390.68984339 3263.63069574 2400.90371591 3260.56637573 2411.09741211 C3259.16751918 2415.7964968 3257.87368201 2420.52589412 3256.5625 2425.25 C3255.9585818 2427.41022573 3255.35441121 2429.57038091 3254.75 2431.73046875 C3253.90684857 2434.74731242 3253.06510745 2437.76448124 3252.23046875 2440.78369141 C3249.15084285 2451.92263242 3245.79298743 2462.92429794 3242.06665039 2473.86547852 C3240.00696984 2479.91849355 3238.04784735 2485.99654037 3236.13671875 2492.09765625 C3233.1693651 2501.55188377 3230.03039479 2510.9409168 3226.8125 2520.3125 C3226.53276337 2521.12837585 3226.25302673 2521.94425171 3225.96481323 2522.78485107 C3204.18971824 2586.2220244 3179.05283356 2648.85696371 3149.43798828 2709.05908203 C3147.52933265 2712.96259065 3145.66554689 2716.88671443 3143.80273438 2720.81225586 C3135.54941511 2738.19411226 3127.09497676 2755.45129191 3117.72485352 2772.26196289 C3115.36069843 2776.50588223 3113.07248942 2780.75933537 3110.9375 2785.125 C3106.94542973 2793.25657496 3102.44165044 2801.10836495 3098 2809 C3097.48453613 2809.91845703 3096.96907227 2810.83691406 3096.43798828 2811.78320312 C3082.20953377 2837.12964603 3067.37567227 2862.07681279 3051.78125 2886.609375 C3050.03422803 2889.35913972 3048.30273858 2892.11706713 3046.59375 2894.890625 C3027.5084713 2925.8459675 3006.39540192 2955.60846207 2985 2985 C2984.43522949 2985.77633789 2983.87045898 2986.55267578 2983.28857422 2987.35253906 C2975.25786986 2998.37294115 2967.03718781 3009.22486174 2958.61230469 3019.94677734 C2957.11514468 3021.85336663 2955.62301616 3023.76375297 2954.1328125 3025.67578125 C2947.68514803 3033.93573096 2941.10143565 3042.08112009 2934.47216797 3050.19580078 C2933.17728489 3051.78273046 2931.88709522 3053.37348737 2930.59765625 3054.96484375 C2925.97237352 3060.66071633 2921.23525905 3066.24921034 2916.44335938 3071.8046875 C2913.37949048 3075.36423965 2910.38399067 3078.96692392 2907.4375 3082.625 C2903.33698767 3087.67808144 2898.98415243 3092.45309348 2894.5625 3097.22265625 C2891.89638085 3100.11230673 2889.30401647 3103.05509004 2886.7265625 3106.0234375 C2879.63160781 3114.14571595 2872.31398847 3122.07516786 2865 3130 C2864.44618652 3130.60038086 2863.89237305 3131.20076172 2863.32177734 3131.81933594 C2856.55541492 3139.14341753 2849.73919142 3146.37939346 2842.59765625 3153.33984375 C2840.60476 3155.38068938 2838.75023782 3157.4311464 2836.8984375 3159.59375 C2832.52434213 3164.63814129 2827.81283023 3169.33735246 2823.0847168 3174.0456543 C2821.56508332 3175.5599258 2820.05087483 3177.0794743 2818.53710938 3178.59960938 C2813.76743849 3183.37220351 2808.94086321 3188.01579161 2803.81225586 3192.40600586 C2800.72561523 3195.12090235 2797.87239896 3198.06202116 2795 3201 C2790.83645966 3205.25859834 2786.57523547 3209.29548557 2782.06640625 3213.1875 C2778.45118556 3216.35850643 2774.98452221 3219.68684773 2771.5 3223 C2763.91527146 3230.2117091 2756.08993791 3237.08886833 2748.125 3243.875 C2743.96793311 3247.42401333 2739.85424498 3251.00674022 2735.8125 3254.6875 C2731.64927574 3258.46486445 2727.34292109 3262.02427268 2722.97265625 3265.55859375 C2719.66248454 3268.27719732 2716.42508413 3271.07088495 2713.1875 3273.875 C2708.0302692 3278.32826809 2702.76873898 3282.60859912 2697.38696289 3286.78686523 C2692.90787506 3290.26797978 2688.5107149 3293.83975596 2684.125 3297.4375 C2677.65168974 3302.72897075 2671.03684193 3307.79080504 2664.32421875 3312.7734375 C2660.29106419 3315.77035412 2656.30094142 3318.82147955 2652.31298828 3321.87817383 C2636.406796 3334.06425302 2620.13085056 3345.67877958 2603.6875 3357.12597656 C2600.8608997 3359.09699618 2598.03957304 3361.07541 2595.21875 3363.0546875 C2584.60894567 3370.48673119 2573.93474242 3377.76359408 2563.00634766 3384.71875 C2560.29200987 3386.45212122 2557.59204769 3388.20725271 2554.89160156 3389.9621582 C2539.7202629 3399.81568969 2524.52224374 3409.62814954 2508.95068359 3418.83984375 C2506.81117844 3420.11230039 2504.68047947 3421.39869903 2502.55078125 3422.6875 C2490.8859711 3429.7392834 2479.11344059 3436.59160549 2467.29296875 3443.37890625 C2463.38988578 3445.62029818 2459.49530014 3447.87466944 2455.61328125 3450.15234375 C2447.80338051 3454.73040245 2439.99324812 3459.09926466 2431.84765625 3463.0625 C2426.85693998 3465.53157702 2422.00169158 3468.25246365 2417.125 3470.9375 C2410.20262505 3474.74229346 2403.25804286 3478.4480972 2396.16821289 3481.93041992 C2391.39364899 3484.28212435 2386.67825596 3486.73354821 2381.97094727 3489.21704102 C2369.45074911 3495.81607772 2356.78854003 3502.05060668 2343.97979736 3508.06903076 C2341.84222189 3509.07419273 2339.7060121 3510.08222469 2337.56982422 3511.09033203 C2287.66683273 3534.61422092 2236.81058743 3555.9229255 2184.97169495 3574.81448364 C2180.53221995 3576.43341942 2176.10520331 3578.08268847 2171.68359375 3579.75 C2152.42736073 3586.97681101 2132.92283814 3593.33166737 2113.34518433 3599.62390137 C2106.49824254 3601.82843029 2099.68432376 3604.11935795 2092.875 3606.4375 C2084.08585054 3609.40880756 2075.21563796 3611.98178943 2066.26757812 3614.4296875 C2059.42531457 3616.30311374 2052.64547083 3618.3206823 2045.875 3620.4375 C2034.73020485 3623.89943768 2023.45400015 3626.78778398 2012.14735413 3629.66023254 C2005.92930171 3631.24025138 1999.73350214 3632.87060534 1993.5625 3634.625 C1964.46272923 3642.84653486 1934.81232674 3649.14184076 1905.25 3655.4375 C1904.58722801 3655.57875179 1903.92445602 3655.72000359 1903.24160004 3655.86553574 C1881.69883282 3660.45494683 1860.13747203 3664.81936526 1838.43280029 3668.57672119 C1835.83599529 3669.0285349 1833.24042823 3669.48701261 1830.64501953 3669.94677734 C1802.2511283 3674.97142363 1773.79550985 3679.33311673 1745.23193359 3683.27441406 C1740.82539277 3683.88324575 1736.42200236 3684.51086607 1732.01953125 3685.1484375 C1170.19274506 3765.98710646 468.25295996 3707 0 3707 C0 2483.69 0 1260.38 0 0 Z M904 771 C904 1481.49 904 2191.98 904 2924 C1180.51595676 2929.0873759 1180.51595676 2929.0873759 1456.5 2920.1875 C1457.6253717 2920.10351959 1458.75074341 2920.01953918 1459.91021729 2919.93301392 C1558.75661576 2912.51614518 1657.03741941 2895.76476719 1870 2821 C1870.71712158 2820.6713092 1871.43424316 2820.34261841 1872.1730957 2820.00396729 C1897.94080463 2808.18173328 1923.15416921 2795.66154373 1947.5625 2781.19921875 C1951.40197073 2778.92616192 1955.26881496 2776.725473 1959.18530273 2774.58862305 C1969.46560307 2768.96915337 1979.18625387 2762.50232007 1988.94287109 2756.02783203 C1992.01594536 2753.98942324 1995.09545976 2751.96103012 1998.17578125 2749.93359375 C2016.31414959 2737.96028517 2033.82894901 2725.3177049 2051 2712 C2051.93585937 2711.27683594 2051.93585937 2711.27683594 2052.890625 2710.5390625 C2060.39050332 2704.73787457 2067.71577226 2698.77129007 2074.921875 2692.609375 C2077.71666189 2690.22527908 2080.57051045 2687.92194485 2083.4375 2685.625 C2088.45175024 2681.54908898 2093.18042287 2677.21147206 2097.87866211 2672.77978516 C2100.85295093 2669.97609145 2103.86046521 2667.22892734 2106.9453125 2664.546875 C2118.10457163 2654.8374777 2128.65432941 2644.44030482 2139.125 2634 C2140.00115967 2633.12843262 2140.87731934 2632.25686523 2141.7800293 2631.35888672 C2146.13572519 2626.99272544 2150.34126249 2622.56325722 2154.35986328 2617.88525391 C2157.10390342 2614.73111905 2159.99947962 2611.72126887 2162.875 2608.6875 C2167.79493773 2603.4605134 2172.45374682 2598.14137138 2176.93359375 2592.53125 C2179.00112782 2589.99861847 2181.16113341 2587.5926884 2183.375 2585.1875 C2187.89533573 2580.22061464 2192.00940493 2574.9950021 2196.12109375 2569.69140625 C2198.02387011 2567.23886691 2199.95201482 2564.81090354 2201.91015625 2562.40234375 C2209.08718199 2553.57209613 2215.83757458 2544.49429395 2222.42382812 2535.21582031 C2223.90407218 2533.13485764 2225.39555938 2531.06251499 2226.890625 2528.9921875 C2277.80970706 2458.14179722 2316.6264878 2378.93428662 2365 2234 C2365.21658264 2233.21768005 2365.43316528 2232.43536011 2365.65631104 2231.6293335 C2391.44063372 2138.30675052 2405.31087693 2042.20965537 2412.625 1887.1875 C2412.64564514 1886.18195068 2412.66629028 1885.17640137 2412.68756104 1884.14038086 C2414.67090187 1784.32111319 2407.93923573 1684.41425334 2391 1586 C2390.86398376 1585.20841492 2390.72796753 1584.41682983 2390.58782959 1583.60125732 C2375.78599346 1497.89236805 2351.03346658 1413.60959008 2297 1293 C2296.40714997 1291.78698404 2295.81437885 1290.57392952 2295.22167969 1289.36083984 C2287.01610066 1272.58957556 2278.45099123 1256.11176383 2269 1240 C2268.36320312 1238.90381348 2267.72640625 1237.80762695 2267.0703125 1236.67822266 C2250.90927375 1208.87988403 2233.35149811 1181.69303634 2214 1156 C2213.38253906 1155.17580566 2212.76507812 1154.35161133 2212.12890625 1153.50244141 C2203.78333448 1142.38111294 2195.25063806 1131.43650183 2186.40478516 1120.70898438 C2185.09873599 1119.12011677 2183.80471919 1117.52137947 2182.51171875 1115.921875 C2178.19356693 1110.58198432 2173.73984723 1105.41055881 2169.1171875 1100.33203125 C2167.21948831 1098.24176111 2165.35266585 1096.13013885 2163.5 1094 C2159.38532769 1089.28546658 2155.21280353 1084.62707316 2151 1080 C2150.55962402 1079.51305664 2150.11924805 1079.02611328 2149.66552734 1078.52441406 C2141.09686622 1069.0765338 2132.13278753 1060.0260905 2123.125 1051 C2122.53736877 1050.40978058 2121.94973755 1049.81956116 2121.34429932 1049.2114563 C2115.63124627 1043.47857802 2109.93831644 1037.78460421 2103.77539062 1032.53027344 C2100.64800564 1029.83466713 2097.68362009 1026.96454094 2094.6875 1024.125 C2089.5649753 1019.30741768 2084.35089469 1014.71232895 2078.8515625 1010.32421875 C2076.09549619 1008.07783593 2073.42516708 1005.75930905 2070.75854492 1003.40869141 C2063.53209696 997.04492116 2056.07027274 991.10661404 2048.37890625 985.31640625 C2045.42027931 983.08833716 2042.49402481 980.82592576 2039.58984375 978.52734375 C2030.39045039 971.25112986 2020.99122344 964.44080335 2011.26171875 957.890625 C2007.90517985 955.62903897 2004.62224663 953.29201262 2001.375 950.875 C1994.14880849 945.56618752 1986.57414659 940.79212528 1979 936 C1978.20835449 935.49839355 1977.41670898 934.99678711 1976.60107422 934.47998047 C1897.7110119 884.66047352 1811.86707869 847.22669931 1417.125 772.8125 C1416.406539 772.77557037 1415.688078 772.73864075 1414.94784546 772.70059204 C1244.84488651 764.1667184 1074.31689183 771 904 771 Z " fill="#FEFEFE" transform="translate(390,434)"/>
<path d="M0 0 C3.30107651 1.25245663 6.30753389 2.65647697 9.3359375 4.46875 C10.54987183 5.19408936 10.54987183 5.19408936 11.78833008 5.93408203 C13.06873169 6.70921143 13.06873169 6.70921143 14.375 7.5 C15.26405029 8.03608887 16.15310059 8.57217773 17.0690918 9.12451172 C24.26316039 13.49203884 31.28603009 18.07186364 38.24072266 22.80859375 C39.9688012 23.97887175 41.70649477 25.13291674 43.44921875 26.28125 C79.08567955 49.77488008 113.15073771 75.5317521 146.19580078 102.52783203 C147.78273046 103.82271511 149.37348737 105.11290478 150.96484375 106.40234375 C157.81148137 111.962095 164.50818531 117.6856812 171.18847656 123.44287109 C172.99362396 124.99451936 174.80438559 126.53933585 176.6171875 128.08203125 C183.03175585 133.54554923 189.35221788 139.08157628 195.5625 144.77734375 C197.64272725 146.67421764 199.74556898 148.53392943 201.875 150.375 C207.11829125 154.93484799 212.18733493 159.68574888 217.28125 164.41064453 C218.97407572 165.9760274 220.67332117 167.53409377 222.375 169.08984375 C228.22429261 174.44497494 233.95794453 179.86158387 239.48828125 185.55078125 C241.49370247 187.50630086 243.52189688 189.32806607 245.64501953 191.14941406 C250.00307455 194.95108092 254.10917774 198.96459963 258.19140625 203.05859375 C258.94034653 203.8065773 259.6892868 204.55456085 260.46092224 205.32521057 C262.03271225 206.89632464 263.60325849 208.46868392 265.17260742 210.04223633 C267.55601304 212.43099846 269.94471068 214.81437446 272.33398438 217.19726562 C273.87011237 218.7340545 275.40593009 220.2711536 276.94140625 221.80859375 C277.64576309 222.51092636 278.35011993 223.21325897 279.07582092 223.93687439 C283.0220752 227.9015742 286.79439887 231.96077689 290.43162537 236.21144104 C292.97938652 239.11688273 295.73547015 241.80273365 298.5 244.5 C302.59823991 248.49852604 306.45715821 252.61449233 310.20117188 256.94726562 C313.2111066 260.38205541 316.35963637 263.684812 319.5 267 C323.89866996 271.64354437 328.20839167 276.33890896 332.40136719 281.16943359 C334.51598364 283.59084383 336.69364771 285.95120451 338.875 288.3125 C342.99906676 292.82903837 346.87936865 297.49133016 350.71875 302.25 C353.06718968 305.08099578 355.50909902 307.79383598 358 310.5 C362.05983645 314.91640144 365.89323821 319.46163522 369.66015625 324.12890625 C372.18733323 327.22986632 374.7761512 330.27175093 377.375 333.3125 C381.67895708 338.36121375 385.80282675 343.52788727 389.87231445 348.76660156 C393.00723962 352.78456501 396.24580244 356.6937004 399.5625 360.5625 C403.97936878 365.72599113 408.17503946 371.02965932 412.28515625 376.44140625 C414.25082541 379.02881635 416.24136771 381.59507424 418.24609375 384.15234375 C424.85844588 392.58818129 431.34376688 401.09849088 437.67431641 409.74804688 C441.31609955 414.72288307 444.99615979 419.66585141 448.70996094 424.5871582 C455.49647073 433.5807545 462.09745673 442.67912382 468.54394531 451.91894531 C470.02969476 454.042441 471.52490885 456.15894332 473.0234375 458.2734375 C473.53237549 458.99184814 474.04131348 459.71025879 474.56567383 460.45043945 C475.50246611 461.77227766 476.43972751 463.09378367 477.37768555 464.41479492 C487.05203843 478.09305497 496.39868699 491.99582632 505.6875 505.9375 C506.53748062 507.21267487 506.53748062 507.21267487 507.40463257 508.51361084 C521.33724229 529.42782683 534.87710544 550.56727584 548 572 C548.65081543 573.06057617 549.30163086 574.12115234 549.97216797 575.21386719 C560.25590148 591.98841027 570.2639532 608.89989205 580 626 C580.54575684 626.95648437 581.09151367 627.91296875 581.65380859 628.8984375 C594.62936135 651.65786439 607.35142457 674.55076597 619.35571289 697.83862305 C620.60819862 700.24670586 621.87056223 702.6482699 623.14233398 705.04614258 C630.0528875 718.0837942 636.71896522 731.23699684 643.3125 744.4375 C644.14045578 746.09431793 644.14045578 746.09431793 644.98513794 747.78460693 C652.9695365 763.77709191 660.80499052 779.80160965 668.14300537 796.10241699 C669.09017156 798.19966056 670.04377568 800.2938978 670.99853516 802.38769531 C701.65188208 869.61229651 728.85708336 938.17457487 753 1008 C753.30788452 1008.88993652 753.61576904 1009.77987305 753.9329834 1010.69677734 C770.11138671 1057.54386318 784.32752547 1105.08951348 797 1153 C797.3053064 1154.15334839 797.61061279 1155.30669678 797.9251709 1156.49499512 C822.13902673 1248.17162578 840.75702369 1341.21373114 869.84570312 1619.96875 C869.99604314 1622.92226527 870.15522818 1625.87518358 870.31640625 1628.828125 C874.09563212 1699.38995317 874.11042392 1771.0787699 870.18682861 1841.63446045 C869.98368173 1845.29395813 869.78841311 1848.95383713 869.59326172 1852.61376953 C864.96282549 1938.70707503 856.27522648 2024.51159229 765 2449 C764.73376831 2449.88294739 764.46753662 2450.76589478 764.1932373 2451.67559814 C744.45483432 2517.06301266 722.71317815 2581.94923848 699 2646 C698.62997864 2647.0017627 698.25995728 2648.00352539 697.87872314 2649.03564453 C667.11516262 2732.30166754 633.30957262 2814.59189602 572.66574097 2943.49757385 C570.84117732 2947.25719539 569.02771449 2951.02195943 567.22183228 2954.79058838 C548.59441703 2993.65899167 529.10995348 3032.31645311 507.6875 3069.72875977 C503.68392129 3076.73187108 499.85703171 3083.81927939 496.0625 3090.9375 C489.9125269 3102.44626138 483.41234394 3113.71681177 476.78417969 3124.95507812 C474.34199101 3129.1229732 471.94434034 3133.31582343 469.54467773 3137.50830078 C456.26544921 3160.68716187 442.23123524 3183.39552215 428 3206 C427.48663086 3206.81694336 426.97326172 3207.63388672 426.44433594 3208.47558594 C423.49625214 3213.16651321 420.5359313 3217.84947378 417.56640625 3222.52685547 C415.94416083 3225.08816254 414.33156588 3227.655403 412.71875 3230.22265625 C403.80238783 3244.34654555 394.53221671 3258.21943774 385.1875 3272.0625 C384.56811554 3272.9800708 383.94873108 3273.8976416 383.31057739 3274.84301758 C364.02696499 3303.39128065 364.02696499 3303.39128065 354.125 3317.375 C353.39011353 3318.41442749 353.39011353 3318.41442749 352.64038086 3319.47485352 C347.8946082 3326.17330998 343.09117802 3332.82975247 338.2734375 3339.4765625 C336.12308618 3342.44366447 333.98269684 3345.41750504 331.8515625 3348.3984375 C324.02193069 3359.33277705 315.92262828 3370.04330234 307.74316406 3380.71777344 C305.51790553 3383.63117914 303.31840637 3386.56254058 301.125 3389.5 C290.34102227 3403.91948538 279.22871411 3418.08500974 267.84106445 3432.03173828 C264.29921986 3436.37694742 260.81876561 3440.76430913 257.375 3445.1875 C252.92850427 3450.89026373 248.30858865 3456.42321348 243.61328125 3461.921875 C241.22117731 3464.7270732 238.88544149 3467.57463157 236.5625 3470.4375 C231.66883642 3476.44573465 226.61973208 3482.31459133 221.56152344 3488.18408203 C219.9974147 3490.00300648 218.43918924 3491.82680079 216.8828125 3493.65234375 C212.41768077 3498.88639972 207.94336671 3504.09837044 203.3125 3509.1875 C200.21031992 3512.59821516 197.26761726 3516.0973376 194.375 3519.6875 C191.31342275 3523.47194966 188.15436499 3526.96488014 184.66015625 3530.34765625 C182.95615774 3532.04363594 181.38285917 3533.80489696 179.8125 3535.625 C175.69710577 3540.39406982 171.41051626 3544.9980121 167.12890625 3549.6171875 C165.08554644 3551.82221556 163.05146698 3554.03511383 161.02734375 3556.2578125 C156.68239629 3561.02838747 152.31917109 3565.74633691 147.70581055 3570.26123047 C146.0350685 3571.96425392 144.49565174 3573.72755842 142.953125 3575.546875 C137.54773209 3581.76150966 131.60003503 3587.44381271 125.73828125 3593.22265625 C121.19898825 3597.72264801 116.81259371 3602.26139845 112.65380859 3607.11474609 C109.76707453 3610.40546952 106.66630616 3613.4780322 103.5625 3616.5625 C102.63727539 3617.49352539 102.63727539 3617.49352539 101.69335938 3618.44335938 C98.62382201 3621.50650852 95.50970443 3624.45737259 92.21484375 3627.27734375 C86.865466 3631.89841161 81.95933281 3636.96986774 77 3642 C71.39193068 3647.68813014 65.80929503 3653.34956966 59.70507812 3658.51367188 C57.88315358 3660.10185581 56.19364783 3661.77607467 54.5 3663.5 C52.17562913 3665.86358972 49.79486214 3668.08885957 47.28125 3670.25 C43.08654563 3673.89673011 39.03474835 3677.67802158 35 3681.5 C30.3459372 3685.90863371 25.64082385 3690.23010841 20.79931641 3694.43261719 C18.56412587 3696.37968954 16.37529997 3698.37494469 14.1875 3700.375 C10.72469918 3703.50422827 7.19320997 3706.50500349 3.5625 3709.4375 C-0.24087503 3712.51336588 -3.90082652 3715.68753166 -7.5 3719 C-11.88894746 3723.03510021 -16.40862766 3726.83830304 -21.046875 3730.58203125 C-24.43358782 3733.35501436 -27.74941743 3736.20239709 -31.0625 3739.0625 C-35.72640416 3743.08077719 -40.43706557 3747.0126056 -45.26953125 3750.828125 C-47.38504765 3752.51085335 -49.48379825 3754.20839763 -51.57421875 3755.921875 C-59.17997359 3762.15330152 -66.86788307 3768.24345405 -74.70214844 3774.18530273 C-79.46397126 3777.8036975 -84.1567551 3781.49629444 -88.8125 3785.25 C-95.10303879 3790.31291777 -101.49926452 3795.2091264 -108 3800 C-108.6801416 3800.50225098 -109.3602832 3801.00450195 -110.06103516 3801.52197266 C-114.04025833 3804.46019565 -118.02261753 3807.39410092 -122.0078125 3810.32421875 C-125.25835479 3812.71499324 -128.5030296 3815.11335729 -131.7421875 3817.51953125 C-142.17452645 3825.25993382 -152.73496051 3832.78985708 -163.40771484 3840.19482422 C-165.99406915 3841.99586996 -168.57030546 3843.81057692 -171.14453125 3845.62890625 C-195.57595747 3862.83570968 -220.67631543 3879.13966517 -246 3895 C-246.84030762 3895.52674316 -247.68061523 3896.05348633 -248.54638672 3896.59619141 C-285.60967706 3919.78447035 -323.44211592 3941.65775192 -361.94970703 3962.35351562 C-364.94086445 3963.96807987 -367.92232345 3965.59936304 -370.90234375 3967.234375 C-403.19302034 3984.85647526 -436.23165448 4001.44171769 -469.77539062 4016.54589844 C-472.66661424 4017.84966342 -475.55230054 4019.16496867 -478.43595886 4020.48536682 C-535.80759647 4046.74895097 -594.44108088 4070.1781731 -654 4091 C-655.33937622 4091.46826202 -655.33937622 4091.46826202 -656.70581055 4091.94598389 C-706.93975631 4109.47944771 -757.65798361 4125.04563497 -809 4139 C-810.02375732 4139.27865906 -811.04751465 4139.55731812 -812.10229492 4139.84442139 C-912.07183498 4167.01130126 -1014.15991941 4186.25644988 -1359.42752838 4220.5918808 C-1361.64755248 4220.6832821 -1363.8674533 4220.77724551 -1366.08734131 4220.87188721 C-1387.1028798 4221.75857472 -1408.12561403 4222.20430707 -1429.15666771 4222.53081417 C-1430.20640705 4222.54719567 -1430.20640705 4222.54719567 -1431.27735325 4222.56390811 C-1467.42821466 4223.12317321 -1503.57732438 4223.14061374 -1539.73172846 4223.12354933 C-1549.71463532 4223.11906049 -1559.69753945 4223.12069182 -1569.68044684 4223.12234976 C-1588.32054717 4223.12528132 -1606.96064432 4223.12358481 -1625.60074425 4223.11920547 C-1644.43994241 4223.11479909 -1663.27913894 4223.11263613 -1682.11833763 4223.11310768 C-1683.91531914 4223.11315072 -1683.91531914 4223.11315072 -1685.7486033 4223.11319463 C-1691.85910178 4223.11335104 -1697.96960026 4223.11354299 -1704.08009874 4223.11374746 C-1748.10252923 4223.1151483 -1792.12495843 4223.11174744 -1836.14738846 4223.10573006 C-1846.98990901 4223.10425061 -1857.83242956 4223.10278917 -1868.67495012 4223.10139394 C-1869.68621888 4223.10126379 -1869.68621888 4223.10126379 -1870.7179173 4223.10113101 C-1902.0578654 4223.09711966 -1933.39781345 4223.09570033 -1964.73776177 4223.09492797 C-1966.7921357 4223.09487721 -1968.84650962 4223.09482524 -1970.90088354 4223.09477296 C-1983.29022118 4223.09445883 -1995.67955883 4223.09417146 -2008.06889648 4223.09391499 C-2038.85669849 4223.09327648 -2069.64450048 4223.09231723 -2100.43230247 4223.09113979 C-2101.132888 4223.09111316 -2101.83347352 4223.09108653 -2102.5552889 4223.09105909 C-2147.85973346 4223.08933421 -2193.16417781 4223.08629016 -2238.46862221 4223.08213139 C-2239.19087793 4223.0820651 -2239.91313365 4223.08199881 -2240.6572759 4223.08193051 C-2262.63907316 4223.0799102 -2284.6208704 4223.07779169 -2306.60266765 4223.07565394 C-2330.92743354 4223.07328877 -2355.25219943 4223.07094037 -2379.57696533 4223.06866455 C-2380.30850877 4223.06859605 -2381.04005221 4223.06852755 -2381.79376364 4223.06845698 C-2451.38989358 4223.06194575 -2520.98602359 4223.05814243 -2590.58215376 4223.05503077 C-2593.53325411 4223.05489862 -2596.48435445 4223.0547657 -2599.43545479 4223.05463275 C-2626.59392976 4223.05340926 -2653.75240474 4223.05221742 -2680.91087971 4223.05106533 C-2681.99421622 4223.05101937 -2681.99421622 4223.05101937 -2683.09943831 4223.05097248 C-2685.28614031 4223.05087972 -2687.47284231 4223.05078697 -2689.65954431 4223.05069422 C-2748.72049896 4223.04818896 -2807.78145359 4223.04540777 -2866.84240821 4223.04244758 C-2868.92584666 4223.04234323 -2871.00928512 4223.04223908 -2873.09272357 4223.04213501 C-2940.75210571 4223.03875421 -3008.41148779 4223.0348859 -3129.70742798 4223.02565002 C-3133.1552835 4223.02537919 -3136.60313902 4223.02510836 -3140.05099454 4223.02483763 C-3235.70066309 4223.01728985 -3331.35033153 4223.00848136 -3427 4223 C-3427 4062.29 -3427 3901.58 -3427 3736 C-3380.68172852 3735.97494385 -3334.36345703 3735.9498877 -3286.64160156 3735.92407227 C-3243.07888024 3735.90031319 -3243.07888024 3735.90031319 -3199.51615904 3735.87632478 C-3196.64121516 3735.8747337 -3193.76627127 3735.87314266 -3190.89132739 3735.8715523 C-3123.69999145 3735.83438286 -3056.50865635 3735.79588355 -2989.31732178 3735.7563324 C-2987.13449615 3735.75504787 -2984.95167052 3735.75376334 -2982.76884489 3735.75247882 C-2936.94297619 3735.72550741 -2891.11710761 3735.69833646 -2845.29123916 3735.67093527 C-2822.2687435 3735.65716937 -2799.24624782 3735.64344178 -2776.22375212 3735.62975043 C-2772.75106297 3735.62768502 -2769.27837382 3735.62561851 -2765.80568467 3735.62355196 C-2712.38010071 3735.59176873 -2658.95451644 3735.56080323 -2605.52893066 3735.53222656 C-2603.8080668 3735.53130607 -2603.8080668 3735.53130607 -2602.05243801 3735.53036698 C-2583.55745662 3735.520479 -2565.06247518 3735.51066014 -2546.56749374 3735.50085045 C-2493.24594174 3735.4725678 -2439.92439024 3735.44376756 -2386.60284042 3735.41159725 C-2385.50451829 3735.41093485 -2384.40619616 3735.41027245 -2383.27459154 3735.40958998 C-2359.15401932 3735.39503369 -2335.03344726 3735.38021501 -2310.91287535 3735.36514846 C-2301.20509797 3735.35908926 -2291.49732057 3735.35306777 -2281.78954315 3735.34705925 C-2280.19590965 3735.34607152 -2280.19590965 3735.34607152 -2278.57008154 3735.34506384 C-2244.43381367 3735.32392504 -2210.29754503 3735.30584644 -2176.1612746 3735.28939963 C-2141.72673513 3735.27279495 -2107.29219883 3735.25313438 -2072.85766355 3735.22932569 C-2068.08078222 3735.22602362 -2063.30390087 3735.22275597 -2058.5270195 3735.21950912 C-2057.12262058 3735.21855269 -2057.12262058 3735.21855269 -2055.68984996 3735.21757693 C-2040.96557166 3735.20763791 -2026.2412938 3735.20092397 -2011.51701318 3735.19561227 C-1996.97760076 3735.19029909 -1982.43819388 3735.18144026 -1967.89878578 3735.16901226 C-1960.14600467 3735.16247822 -1952.39323027 3735.15737143 -1944.64044622 3735.15683801 C-1916.61616625 3735.15412287 -1888.59718649 3735.09110575 -1860.57708359 3734.5487051 C-1859.55092866 3734.52906626 -1858.52477373 3734.50942742 -1857.4675232 3734.48919346 C-1835.64042753 3734.05884363 -1813.83118362 3733.19450982 -1792.02099609 3732.25292969 C-1787.28876078 3732.05100335 -1782.55612767 3731.86866995 -1777.82269287 3731.69741821 C-1724.5373984 3729.76773539 -1671.27830888 3725.90007017 -1618.22509766 3720.61621094 C-1613.04313687 3720.10056165 -1607.85957129 3719.60393547 -1602.67514038 3719.11381531 C-1546.22632824 3713.77092477 -1489.94780418 3706.72062237 -1434.04978943 3697.18914795 C-1425.30666547 3695.7034717 -1416.55017211 3694.30084497 -1407.79492188 3692.88879395 C-1385.49050293 3689.2873161 -1363.22637545 3685.54047318 -1341.0859375 3681.0234375 C-1336.37835908 3680.06700672 -1331.66048098 3679.16992598 -1326.94039917 3678.27754211 C-1316.88275225 3676.36990353 -1306.85136753 3674.37020787 -1296.84375 3672.21484375 C-1295.03414795 3671.82577599 -1295.03414795 3671.82577599 -1293.18798828 3671.42884827 C-1280.44055322 3668.67818691 -1267.71491527 3665.83448921 -1255 3662.9375 C-1253.19577576 3662.52671707 -1253.19577576 3662.52671707 -1251.35510254 3662.1076355 C-1233.10705078 3657.94356726 -1214.90898936 3653.59907759 -1196.75 3649.0625 C-1195.69441895 3648.79968231 -1194.63883789 3648.53686462 -1193.55126953 3648.26608276 C-1181.14363055 3645.16965213 -1168.82077034 3641.85909987 -1156.53759766 3638.30151367 C-1151.3235204 3636.79529151 -1146.07730968 3635.44120242 -1140.8125 3634.125 C-1130.65240338 3631.51947132 -1120.65314683 3628.50246523 -1110.64453125 3625.37109375 C-1104.94581098 3623.59172393 -1099.23316123 3621.8649338 -1093.51171875 3620.16015625 C-1067.66959072 3612.44968879 -1042.00852255 3604.25506623 -1016.40527344 3595.78613281 C-1012.37307652 3594.4524456 -1008.33843252 3593.12653192 -1004.30168152 3591.80670166 C-981.77722832 3584.43966392 -959.48123671 3576.45594617 -937.4453125 3567.73046875 C-930.02816935 3564.81407695 -922.54324302 3562.06790048 -915.07617188 3559.28231812 C-868.23777308 3541.80786231 -822.39479574 3521.8103525 -776.99151611 3500.91503906 C-775.09706598 3500.04459877 -773.20095473 3499.17790304 -771.30419922 3498.3125 C-750.46704546 3488.78052083 -729.95890674 3478.58458914 -709.45933151 3468.35237885 C-707.28154971 3467.2657422 -705.10313297 3466.18038771 -702.92459106 3465.09527588 C-686.86526722 3457.09216109 -670.93108391 3448.94113305 -655.237854 3440.23492432 C-649.88125643 3437.27897072 -644.46445839 3434.434365 -639.0625 3431.5625 C-626.59201545 3424.90926355 -614.25938622 3418.0341401 -602 3411 C-600.91879883 3410.38060547 -599.83759766 3409.76121094 -598.72363281 3409.12304688 C-586.84809231 3402.31463083 -574.97902798 3395.49840026 -563.28271484 3388.38525391 C-560.40695469 3386.64011346 -557.52546552 3384.90455397 -554.64453125 3383.16796875 C-540.83406429 3374.83335278 -527.13245379 3366.3561112 -513.56103516 3357.63574219 C-511.13738769 3356.08775 -508.702638 3354.55963515 -506.26171875 3353.0390625 C-472.41193702 3331.87827635 -439.42889017 3309.05176133 -407.15625 3285.56347656 C-404.98529013 3283.98933401 -402.80651629 3282.42666111 -400.625 3280.8671875 C-389.76236678 3273.09189209 -379.11129818 3265.06159866 -368.51464844 3256.92822266 C-366.1407001 3255.10788829 -363.76275805 3253.29295214 -361.3828125 3251.48046875 C-349.091429 3242.11664939 -336.93322844 3232.61223587 -324.96508789 3222.83813477 C-320.64383659 3219.31500652 -316.27736495 3215.85846181 -311.875 3212.4375 C-306.46046861 3208.22115945 -301.22435526 3203.82865834 -296.03637695 3199.33740234 C-292.5893446 3196.35432845 -289.10679811 3193.43044536 -285.5625 3190.5625 C-279.875225 3185.94263145 -274.35546219 3181.1411311 -268.83203125 3176.328125 C-266.36263542 3174.17778385 -263.88235666 3172.04170081 -261.38671875 3169.921875 C-254.40186639 3163.98866155 -247.5893284 3157.91399116 -240.8828125 3151.66796875 C-238.61764407 3149.57161369 -236.33485433 3147.51735322 -234 3145.5 C-229.34791048 3141.47340151 -224.85596566 3137.27536257 -220.34375 3133.09375 C-217.326054 3130.29753628 -214.28960986 3127.52239141 -211.25 3124.75 C-209.73578906 3123.35856292 -208.22174548 3121.96694248 -206.70916748 3120.57373047 C-205.61365032 3119.56502374 -204.51710351 3118.55743345 -203.41925049 3117.55126953 C-188.58021327 3103.91446006 -174.42152716 3089.57481285 -160.18554688 3075.31591797 C-156.57271069 3071.69733622 -152.95533419 3068.08333153 -149.33665276 3064.47059631 C-146.5191507 3061.65671931 -143.70404855 3058.84045104 -140.88965225 3056.02346802 C-139.5564601 3054.68961453 -138.22254068 3053.35648749 -136.88784409 3052.0241394 C-127.81115796 3042.99629255 -127.81115796 3042.99629255 -119.25735474 3033.47753906 C-117.60894253 3031.54046168 -115.82897408 3029.76590601 -114 3028 C-110.89753998 3024.93882747 -108.01893576 3021.76857732 -105.1796875 3018.46484375 C-102.18656663 3015.08014972 -99.09172601 3011.79450841 -96 3008.5 C-91.80021349 3004.02066537 -87.63304735 2999.53144479 -83.62890625 2994.875 C-81.66334911 2992.61248819 -79.64326691 2990.40309317 -77.625 2988.1875 C-74.49577173 2984.72469918 -71.49499651 2981.19320997 -68.5625 2977.5625 C-65.48663412 2973.75912497 -62.31246834 2970.09917348 -59 2966.5 C-54.96489979 2962.11105254 -51.16169696 2957.59137234 -47.41796875 2952.953125 C-44.64498564 2949.56641218 -41.79760291 2946.25058257 -38.9375 2942.9375 C-34.91922281 2938.27359584 -30.9873944 2933.56293443 -27.171875 2928.73046875 C-25.48914665 2926.61495235 -23.79160237 2924.51620175 -22.078125 2922.42578125 C-15.84271818 2914.81516826 -9.74780405 2907.12295335 -3.80371094 2899.2824707 C-0.29751607 2894.66675386 3.28811084 2890.12801204 6.9375 2885.625 C12.63450937 2878.57236563 17.99863215 2871.29484983 23.34765625 2863.9765625 C27.10161882 2858.84469158 30.92332937 2853.7652533 34.75 2848.6875 C40.193763 2841.44947049 45.54605554 2834.15942923 50.76220703 2826.75585938 C52.0761591 2824.89196523 53.39519469 2823.03173943 54.71484375 2821.171875 C57.26709125 2817.57164733 59.80728364 2813.96306691 62.34423828 2810.35205078 C63.44667386 2808.78601358 64.5518135 2807.2218764 65.65966797 2805.65966797 C84.98827864 2778.40108807 103.29771879 2750.33874536 121 2722 C121.52094238 2721.16839355 122.04188477 2720.33678711 122.57861328 2719.47998047 C136.48828244 2697.24893491 149.8801714 2674.70483556 163 2652 C163.96123779 2650.33880127 163.96123779 2650.33880127 164.94189453 2648.64404297 C173.30605251 2634.16863696 181.46501835 2619.60729767 189.328125 2604.8515625 C191.42801781 2600.91173145 193.55172426 2596.98678458 195.70068359 2593.07348633 C202.71522704 2580.29622942 209.51129961 2567.42654361 216.125 2554.4375 C216.61556885 2553.47565796 217.1061377 2552.51381592 217.61157227 2551.52282715 C231.85482068 2523.5790286 245.57758432 2495.42750234 258.39717102 2466.80130005 C260.31042552 2462.52899572 262.24285432 2458.26595767 264.1875 2454.0078125 C286.7485945 2404.4432139 306.50776817 2353.64430445 325.09954834 2302.47674561 C325.92584378 2300.20397107 326.75466963 2297.93214023 327.58447266 2295.66064453 C339.38465403 2263.31704528 349.73966657 2230.45605936 359.89599609 2197.56494141 C360.97011889 2194.09648917 362.05576837 2190.63184956 363.14453125 2187.16796875 C366.8546085 2175.31533585 370.33223933 2163.43004939 373.47924805 2151.41455078 C374.80964654 2146.34616839 376.19622653 2141.3067623 377.70820618 2136.28910828 C381.20354508 2124.66684779 384.0981711 2112.90701379 387 2101.125 C388.01893276 2097.002132 389.04010779 2092.87982389 390.0625 2088.7578125 C390.31036758 2087.75702667 390.55823517 2086.75624084 390.81361389 2085.72512817 C392.38420042 2079.40638084 394.01075286 2073.10489203 395.68359375 2066.8125 C397.61685669 2059.52933562 399.41977415 2052.23007863 401.0625 2044.875 C401.48305664 2042.99856812 401.48305664 2042.99856812 401.91210938 2041.08422852 C411.81386596 1996.62334169 420.79407261 1952.041528 428.16609192 1907.09338379 C429.2550234 1900.45468304 430.36920562 1893.82163576 431.53125 1887.1953125 C434.96915864 1867.56990121 438.01054321 1847.92129872 440.70111084 1828.17956543 C440.99290293 1826.05175338 441.28966535 1823.92470204 441.58837891 1821.79785156 C444.57621922 1800.49909169 447.05043879 1779.1466446 449.39643097 1757.76903915 C449.61966757 1755.73606152 449.84380189 1753.70318442 450.0680542 1751.6703186 C453.5023071 1720.43051446 456.26815005 1689.15967232 458.5 1657.8125 C458.55279617 1657.07546215 458.60559235 1656.3384243 458.6599884 1655.57905197 C460.28288691 1632.91874267 461.66753445 1610.2550851 462.75 1587.5625 C462.83834106 1585.71828964 462.83834106 1585.71828964 462.9284668 1583.83682251 C464.32448602 1554.30210412 465.16537621 1524.81746132 465.20018864 1495.25286126 C465.20319174 1492.80897018 465.20730759 1490.36508305 465.21169281 1487.92119408 C465.22529608 1480.13208562 465.23498705 1472.34298711 465.2388947 1464.55386764 C465.24287042 1456.6900723 465.25489761 1448.82640038 465.28125 1440.96264648 C465.54321381 1361.01751958 462.51717666 1281.35921275 455.49853516 1201.70654297 C455.10135025 1197.18881484 454.72100775 1192.66991843 454.3480835 1188.15013123 C450.69535869 1144.03923367 445.37732317 1100.01988002 439.25 1056.1875 C439.11347015 1055.20634216 438.97694031 1054.22518433 438.83627319 1053.21429443 C437.09784429 1040.79702055 435.07610454 1028.44721808 432.89257812 1016.10083008 C431.87485936 1010.3305827 430.97873778 1004.54653764 430.125 998.75 C420.22972258 933.84418378 406.37263337 869.65857943 390.25930786 806.03501892 C388.58292122 799.39012697 386.98069712 792.73102022 385.41796875 786.05859375 C383.37969103 777.38869627 381.08366045 768.81354732 378.64001465 760.24993896 C377.75640471 757.14365313 376.88976553 754.03270894 376.02210999 750.92193604 C371.2291328 733.74989143 366.41828027 716.58703152 361.10693359 699.56689453 C359.99623919 695.98788147 358.89928569 692.40488729 357.80430603 688.82104492 C344.76009944 646.16169162 330.84543763 603.63263222 314.41275024 562.13902283 C312.66197842 557.71428442 310.97326435 553.27108618 309.3203125 548.80859375 C305.60688034 538.85738033 301.69193667 528.98753352 297.75 519.125 C297.36349274 518.15755859 296.97698547 517.19011719 296.57876587 516.19335938 C284.1519071 485.14158243 270.9238551 454.41011648 257 424 C256.20577637 422.26508301 256.20577637 422.26508301 255.39550781 420.49511719 C235.09236596 376.2931071 213.5363737 332.5720352 190 290 C189.57799316 289.23461914 189.15598633 288.46923828 188.72119141 287.68066406 C178.40435756 268.97552928 167.94777807 250.34411199 157 232 C156.45118164 231.08025391 155.90236328 230.16050781 155.33691406 229.21289062 C150.90800561 221.79849852 146.45903816 214.39630519 142 207 C141.38511719 205.97938477 140.77023438 204.95876953 140.13671875 203.90722656 C133.05310069 192.16313388 125.84985527 180.52168899 118.33056641 169.05151367 C116.87581574 166.80852838 115.45233218 164.5471653 114.02734375 162.28515625 C108.33346493 153.32235552 102.39568445 144.51817215 96.5 135.6875 C95.87472412 134.75036163 95.24944824 133.81322327 94.60522461 132.84768677 C67.30399824 91.93566661 39.04801151 51.75461078 8.8359375 12.92578125 C8.13839355 12.02738525 8.13839355 12.02738525 7.42675781 11.11083984 C6.22802248 9.56992988 5.02439474 8.03282921 3.8203125 6.49609375 C2.27224002 4.37330767 1.0686495 2.3904002 0 0 Z " fill="#2B70F5" transform="translate(3645,838)"/>
<path d="M0 0 C271.89516129 0 271.89516129 0 364 81 C364.73347656 81.63421875 365.46695313 82.2684375 366.22265625 82.921875 C368.16040644 84.60151532 370.08187504 86.2980018 372 88 C372.75410156 88.66128906 373.50820312 89.32257813 374.28515625 90.00390625 C379.05251166 94.2272845 383.67321985 98.57165774 388.1875 103.0625 C388.66219727 103.53260498 389.13689453 104.00270996 389.62597656 104.48706055 C393.61243298 108.49068812 397.3205451 112.71452924 401 117 C401.54180908 117.6297876 402.08361816 118.2595752 402.6418457 118.90844727 C455.98596325 181.39773232 484 260.06620984 484 342 C412.72 342 341.44 342 268 342 C268.01571045 361.20759521 268.0314209 380.41519043 268.04760742 400.20483398 C268.05765668 413.03144822 268.06765515 425.85806234 268.07695007 438.68467712 C268.07754207 439.49956878 268.07813408 440.31446044 268.07874402 441.15404579 C268.09862351 468.59236532 268.11437377 496.03068561 268.12702942 523.4690094 C268.12744359 524.36466524 268.12785776 525.26032109 268.12828448 526.18311802 C268.13726378 545.64941027 268.14557424 565.11570275 268.15319599 584.58199557 C268.15693791 594.12863838 268.16082758 603.67528112 268.16479492 613.22192383 C268.1651872 614.17191572 268.16557948 615.12190761 268.16598364 616.10068714 C268.17876145 646.87752234 268.20129072 677.654341 268.22889166 708.43116618 C268.25721006 740.06555673 268.27566112 771.69993811 268.28174497 803.33434112 C268.2826094 807.80527694 268.28358631 812.27621273 268.28463173 816.74714851 C268.284834 817.62706918 268.28503627 818.50698984 268.28524467 819.41357477 C268.28878605 833.56229094 268.30269006 847.71097874 268.3204961 861.85968336 C268.33818694 876.09333925 268.34489665 890.3269671 268.34050413 904.56063359 C268.33822716 913.01099129 268.34426296 921.46124615 268.36239263 929.91158522 C268.37369198 935.56604846 268.37395626 941.22044482 268.36549544 946.87491278 C268.36099235 950.09061083 268.36273914 953.30607781 268.37464955 956.52176242 C268.43260134 973.14009685 267.90477827 989.13262484 262.375 1005 C262.12339111 1005.7336377 261.87178223 1006.46727539 261.61254883 1007.22314453 C256.89690187 1020.36851964 249.95030213 1032.28922523 241 1043 C240.16855469 1043.99515625 239.33710937 1044.9903125 238.48046875 1046.015625 C228.19632921 1057.93271269 215.91629206 1066.77741137 202 1074 C201.10023438 1074.47050781 200.20046875 1074.94101563 199.2734375 1075.42578125 C193.84672888 1078.073556 188.27113345 1079.95978721 182.5 1081.6875 C181.82412842 1081.89012451 181.14825684 1082.09274902 180.4519043 1082.30151367 C122.60895577 1098.84878037 60.16326728 1086 0 1086 C0 727.62 0 369.24 0 0 Z " fill="#2C71F6" transform="translate(1804,1813)"/>
</svg>
