<?xml version="1.0" encoding="UTF-8"?> <svg xmlns="http://www.w3.org/2000/svg" width="158" height="32" viewBox="0 0 158 32" fill="none"><path d="M41.44 23V8.1H44.04L49.62 15.68H48.38L53.84 8.1H56.44V23H53.7V11.2L54.76 11.46L49.1 19H48.78L43.26 11.46L44.16 11.2V23H41.44ZM63.6316 23.24C62.5116 23.24 61.5316 22.9867 60.6916 22.48C59.8516 21.9733 59.1982 21.2867 58.7316 20.42C58.2649 19.5533 58.0316 18.5933 58.0316 17.54C58.0316 16.4467 58.2649 15.48 58.7316 14.64C59.2116 13.7867 59.8582 13.1133 60.6716 12.62C61.4982 12.1267 62.4182 11.88 63.4316 11.88C64.2849 11.88 65.0316 12.02 65.6716 12.3C66.3249 12.58 66.8782 12.9667 67.3316 13.46C67.7849 13.9533 68.1316 14.52 68.3716 15.16C68.6116 15.7867 68.7316 16.4667 68.7316 17.2C68.7316 17.3867 68.7182 17.58 68.6916 17.78C68.6782 17.98 68.6449 18.1533 68.5916 18.3H60.1916V16.3H67.1116L65.8716 17.24C65.9916 16.6267 65.9582 16.08 65.7716 15.6C65.5982 15.12 65.3049 14.74 64.8916 14.46C64.4916 14.18 64.0049 14.04 63.4316 14.04C62.8849 14.04 62.3982 14.18 61.9716 14.46C61.5449 14.7267 61.2182 15.1267 60.9916 15.66C60.7782 16.18 60.6982 16.8133 60.7516 17.56C60.6982 18.2267 60.7849 18.82 61.0116 19.34C61.2516 19.8467 61.5982 20.24 62.0516 20.52C62.5182 20.8 63.0516 20.94 63.6516 20.94C64.2516 20.94 64.7582 20.8133 65.1716 20.56C65.5982 20.3067 65.9316 19.9667 66.1716 19.54L68.2916 20.58C68.0782 21.1 67.7449 21.56 67.2916 21.96C66.8382 22.36 66.2982 22.6733 65.6716 22.9C65.0582 23.1267 64.3782 23.24 63.6316 23.24ZM75.2777 23.24C74.1577 23.24 73.1777 22.9867 72.3377 22.48C71.4977 21.9733 70.8443 21.2867 70.3777 20.42C69.911 19.5533 69.6777 18.5933 69.6777 17.54C69.6777 16.4467 69.911 15.48 70.3777 14.64C70.8577 13.7867 71.5043 13.1133 72.3177 12.62C73.1443 12.1267 74.0643 11.88 75.0777 11.88C75.931 11.88 76.6777 12.02 77.3177 12.3C77.971 12.58 78.5243 12.9667 78.9777 13.46C79.431 13.9533 79.7777 14.52 80.0177 15.16C80.2577 15.7867 80.3777 16.4667 80.3777 17.2C80.3777 17.3867 80.3643 17.58 80.3377 17.78C80.3243 17.98 80.291 18.1533 80.2377 18.3H71.8377V16.3H78.7577L77.5177 17.24C77.6377 16.6267 77.6043 16.08 77.4177 15.6C77.2443 15.12 76.951 14.74 76.5377 14.46C76.1377 14.18 75.651 14.04 75.0777 14.04C74.531 14.04 74.0443 14.18 73.6177 14.46C73.191 14.7267 72.8643 15.1267 72.6377 15.66C72.4243 16.18 72.3443 16.8133 72.3977 17.56C72.3443 18.2267 72.431 18.82 72.6577 19.34C72.8977 19.8467 73.2443 20.24 73.6977 20.52C74.1643 20.8 74.6977 20.94 75.2977 20.94C75.8977 20.94 76.4043 20.8133 76.8177 20.56C77.2443 20.3067 77.5777 19.9667 77.8177 19.54L79.9377 20.58C79.7243 21.1 79.391 21.56 78.9377 21.96C78.4843 22.36 77.9443 22.6733 77.3177 22.9C76.7043 23.1267 76.0243 23.24 75.2777 23.24ZM86.7238 23.12C85.4971 23.12 84.5438 22.7867 83.8638 22.12C83.1971 21.44 82.8638 20.4867 82.8638 19.26V14.46H80.9838V12.12H81.1838C81.7171 12.12 82.1304 11.98 82.4238 11.7C82.7171 11.42 82.8638 11.0133 82.8638 10.48V9.64H85.4838V12.12H87.9838V14.46H85.4838V19.12C85.4838 19.48 85.5438 19.7867 85.6638 20.04C85.7971 20.2933 85.9971 20.4867 86.2638 20.62C86.5438 20.7533 86.8971 20.82 87.3238 20.82C87.4171 20.82 87.5238 20.8133 87.6438 20.8C87.7771 20.7867 87.9038 20.7733 88.0238 20.76V23C87.8371 23.0267 87.6238 23.0533 87.3838 23.08C87.1438 23.1067 86.9238 23.12 86.7238 23.12ZM89.4255 23V12.12H92.0455V23H89.4255ZM89.4255 10.9V8.1H92.0455V10.9H89.4255ZM93.8645 23V12.12H96.3245V14.26L96.1245 13.88C96.3779 13.2267 96.7912 12.7333 97.3645 12.4C97.9512 12.0533 98.6312 11.88 99.4045 11.88C100.205 11.88 100.911 12.0533 101.525 12.4C102.151 12.7467 102.638 13.2333 102.985 13.86C103.331 14.4733 103.505 15.1867 103.505 16V23H100.885V16.62C100.885 16.14 100.791 15.7267 100.605 15.38C100.418 15.0333 100.158 14.7667 99.8245 14.58C99.5045 14.38 99.1245 14.28 98.6845 14.28C98.2579 14.28 97.8779 14.38 97.5445 14.58C97.2112 14.7667 96.9512 15.0333 96.7645 15.38C96.5779 15.7267 96.4845 16.14 96.4845 16.62V23H93.8645ZM110.4 27.4C109.587 27.4 108.833 27.2667 108.14 27C107.447 26.7333 106.847 26.36 106.34 25.88C105.847 25.4133 105.487 24.86 105.26 24.22L107.7 23.3C107.86 23.8067 108.173 24.2133 108.64 24.52C109.12 24.84 109.707 25 110.4 25C110.933 25 111.4 24.9 111.8 24.7C112.213 24.5 112.533 24.2067 112.76 23.82C112.987 23.4467 113.1 22.9933 113.1 22.46V19.98L113.6 20.58C113.227 21.2333 112.727 21.7267 112.1 22.06C111.473 22.3933 110.76 22.56 109.96 22.56C108.947 22.56 108.04 22.3267 107.24 21.86C106.44 21.3933 105.813 20.7533 105.36 19.94C104.907 19.1267 104.68 18.2133 104.68 17.2C104.68 16.1733 104.907 15.26 105.36 14.46C105.813 13.66 106.433 13.0333 107.22 12.58C108.007 12.1133 108.9 11.88 109.9 11.88C110.713 11.88 111.427 12.0533 112.04 12.4C112.667 12.7333 113.187 13.22 113.6 13.86L113.24 14.52V12.12H115.72V22.46C115.72 23.4067 115.487 24.2533 115.02 25C114.567 25.7467 113.94 26.3333 113.14 26.76C112.353 27.1867 111.44 27.4 110.4 27.4ZM110.28 20.14C110.84 20.14 111.327 20.02 111.74 19.78C112.167 19.5267 112.5 19.18 112.74 18.74C112.98 18.3 113.1 17.7933 113.1 17.22C113.1 16.66 112.973 16.16 112.72 15.72C112.48 15.2667 112.147 14.9133 111.72 14.66C111.307 14.4067 110.827 14.28 110.28 14.28C109.733 14.28 109.24 14.4067 108.8 14.66C108.36 14.9133 108.013 15.2667 107.76 15.72C107.52 16.16 107.4 16.66 107.4 17.22C107.4 17.78 107.52 18.28 107.76 18.72C108.013 19.16 108.353 19.5067 108.78 19.76C109.22 20.0133 109.72 20.14 110.28 20.14ZM117.787 23V8.1H120.507V14.6H126.847V8.1H129.587V23H126.847V17H120.507V23H117.787ZM131.635 23V12.12H134.255V23H131.635ZM131.635 10.9V8.1H134.255V10.9H131.635ZM139.354 23L135.074 12.12H137.934L141.034 20.68H139.974L143.094 12.12H145.954L141.674 23H139.354ZM151.767 23.24C150.647 23.24 149.667 22.9867 148.827 22.48C147.987 21.9733 147.333 21.2867 146.867 20.42C146.4 19.5533 146.167 18.5933 146.167 17.54C146.167 16.4467 146.4 15.48 146.867 14.64C147.347 13.7867 147.993 13.1133 148.807 12.62C149.633 12.1267 150.553 11.88 151.567 11.88C152.42 11.88 153.167 12.02 153.807 12.3C154.46 12.58 155.013 12.9667 155.467 13.46C155.92 13.9533 156.267 14.52 156.507 15.16C156.747 15.7867 156.867 16.4667 156.867 17.2C156.867 17.3867 156.853 17.58 156.827 17.78C156.813 17.98 156.78 18.1533 156.727 18.3H148.327V16.3H155.247L154.007 17.24C154.127 16.6267 154.093 16.08 153.907 15.6C153.733 15.12 153.44 14.74 153.027 14.46C152.627 14.18 152.14 14.04 151.567 14.04C151.02 14.04 150.533 14.18 150.107 14.46C149.68 14.7267 149.353 15.1267 149.127 15.66C148.913 16.18 148.833 16.8133 148.887 17.56C148.833 18.2267 148.92 18.82 149.147 19.34C149.387 19.8467 149.733 20.24 150.187 20.52C150.653 20.8 151.187 20.94 151.787 20.94C152.387 20.94 152.893 20.8133 153.307 20.56C153.733 20.3067 154.067 19.9667 154.307 19.54L156.427 20.58C156.213 21.1 155.88 21.56 155.427 21.96C154.973 22.36 154.433 22.6733 153.807 22.9C153.193 23.1267 152.513 23.24 151.767 23.24Z" fill="#272727"></path><path d="M10.5 1.73205C12.3564 0.660254 14.6436 0.660254 16.5 1.73205L23.9234 6.01795C25.7798 7.08975 26.9234 9.07051 26.9234 11.2141V19.7859C26.9234 21.9295 25.7798 23.9103 23.9234 24.982L16.5 29.268C14.6436 30.3397 12.3564 30.3397 10.5 29.268L3.07661 24.982C1.2202 23.9103 0.0766058 21.9295 0.0766058 19.7859V11.2141C0.0766058 9.07051 1.2202 7.08975 3.07661 6.01795L10.5 1.73205Z" fill="#272727"></path><path d="M18.8667 19L13.7269 15.648C13.5853 15.5557 13.5 15.3981 13.5 15.2292V6" stroke="white" stroke-width="2" stroke-linecap="round" stroke-linejoin="round"></path></svg> 